<svg id="Layer_1" xmlns="http://www.w3.org/2000/svg" viewBox="0 0 218 215.3"><style>.st0{fill:#7bccc7}.st1{fill:#979a8e}.st2{fill:#c8cab9}.st3{fill:#4a5363}.st4{fill:#e8a79e}</style><g id="appartment"><ellipse class="st0" cx="109" cy="200" rx="109" ry="15.3"/><path class="st1" d="M62 23.8h131.9v179.9H62z"/><path class="st2" d="M24.1 23.8H130v179.9H24.1z"/><path class="st3" d="M49 54.2h14.4v21.6H49zM93.2 54.2h14.4v21.6H93.2zM142 52.3h14.4v21.6H142zM49 86.4h14.4V108H49zM93.2 86.4h14.4V108H93.2zM142 84.5h14.4v21.6H142zM49 118.6h14.4v21.6H49zM93.2 118.6h14.4v21.6H93.2zM142 116.7h14.4v21.6H142zM49 148.8h14.4v21.6H49z"/><path class="st2" d="M54.1 0h15.8v22.9H54.1z"/><path class="st3" d="M93.2 148.8h14.4v21.6H93.2zM142 147h14.4v21.6H142z"/><path class="st4" d="M24.1 15.5h169.8v14.7H24.1z"/><path class="st3" d="M166.4 53.8h14.4v21.6h-14.4zM166.4 86h14.4v21.6h-14.4zM166.4 118.2h14.4v21.6h-14.4zM166.4 148.4h14.4V170h-14.4zM63.2 176.8h30.3v26.9H63.2zM129.9 15.5h63.9v14.7h-63.9z"/></g></svg>